{"title":"Seatrain - Seatrain &amp; Marblehead Messenger","uid":4987911,"size":908787085,"categoryP":"audio","categoryS":"flac","magnet":"?xt=urn:btih:4d5e2e4588086346d67f32f93b979f881e861edc&amp;dn=Seatrain+-+Seatrain+%26+Marblehead+Messenger&amp;tr=udp%3A%2F%2Ftracker.openbittorrent.com%3A80&amp;tr=udp%3A%2F%2Fopen.demonii.com%3A1337&amp;tr=udp%3A%2F%2Ftracker.coppersurfer.tk%3A6969&amp;tr=udp%3A%2F%2Fexodus.desync.com%3A6969","seeders":1,"leechers":0,"uploader":"sowingmyseed","files":26,"time":1246863417,"description":"Exact Audio Copy V0.99 prebeta 4 from 23. January 2008\n\nEAC extraction logfile from 5. July 2009, 19:38\n\nSeatrain / Seatrain\n\nUsed drive  : ATAPI   DVD D  DH16D3P   Adapter: 0  ID: 1\n\nRead mode               : Secure\nUtilize accurate stream : Yes\nDefeat audio cache      : No\nMake use of C2 pointers : No\n\nRead offset correction                      : 6\nOverread into Lead-In and Lead-Out          : No\nFill up missing offset samples with silence : Yes\nDelete leading and trailing silent blocks   : No\nNull samples used in CRC calculations       : No\nUsed interface                              : Installed external ASPI interface\nGap handling                                : Not detected, thus appended to previous track\n\nUsed output format : Internal WAV Routines\nSample format      : 44.100 Hz; 16 Bit; Stereo\n\n\nTOC of the extracted CD\n\n     Track |   Start  |  Length  | Start sector | End sector \n    ---------------------------------------------------------\n        1  |  0:00.00 |  3:40.57 |         0    |    16556   \n        2  |  3:40.57 |  6:14.38 |     16557    |    44644   \n        3  |  9:55.20 |  3:11.10 |     44645    |    58979   \n        4  | 13:06.30 |  3:31.10 |     58980    |    74814   \n        5  | 16:37.40 |  5:59.37 |     74815    |   101776   \n        6  | 22:37.02 |  3:47.00 |    101777    |   118801   \n        7  | 26:24.02 |  3:04.73 |    118802    |   132674   \n        8  | 29:29.00 |  2:48.35 |    132675    |   145309   \n        9  | 32:17.35 |  2:19.25 |    145310    |   155759   \n       10  | 34:36.60 |  5:32.02 |    155760    |   180661   \n       11  | 40:08.62 |  5:17.00 |    180662    |   204436   \n\n\nTrack  1\n\n     Filename E:MusicSeatrainSeatrainSeatrain - Seatrain - 01. I'm Willin'.wav\n\n     Peak level 85.5 %\n     Track quality 100.0 %\n     Copy CRC 3D216F1E\n     Cannot be verified as accurate (confidence 2)  [F45B64C4], AccurateRip returned [144457F0]\n     Copy OK\n\nTrack  2\n\n     Filename E:MusicSeatrainSeatrainSeatrain - Seatrain - 02. Song Of Job.wav\n\n     Peak level 85.7 %\n     Track quality 100.0 %\n     Copy CRC CCBDF9FD\n     Cannot be verified as accurate (confidence 2)  [BB162ED3], AccurateRip returned [3E354F65]\n     Copy OK\n\nTrack  3\n\n     Filename E:MusicSeatrainSeatrainSeatrain - Seatrain - 03. Broken Morning.wav\n\n     Peak level 84.9 %\n     Track quality 100.0 %\n     Copy CRC D91C2FA9\n     Cannot be verified as accurate (confidence 2)  [9FDB1293], AccurateRip returned [6A411A19]\n     Copy OK\n\nTrack  4\n\n     Filename E:MusicSeatrainSeatrainSeatrain - Seatrain - 04. Home To You.wav\n\n     Peak level 85.1 %\n     Track quality 100.0 %\n     Copy CRC FF302DC4\n     Cannot be verified as accurate (confidence 3)  [4B00D73F], AccurateRip returned [AFA01F9B]\n     Copy OK\n\nTrack  5\n\n     Filename E:MusicSeatrainSeatrainSeatrain - Seatrain - 05. Out Where The Hills.wav\n\n     Peak level 84.6 %\n     Track quality 100.0 %\n     Copy CRC 6935DC9A\n     Cannot be verified as accurate (confidence 2)  [0D7A8BAB], AccurateRip returned [961FBC21]\n     Copy OK\n\nTrack  6\n\n     Filename E:MusicSeatrainSeatrainSeatrain - Seatrain - 06. Waiting For Elijah.wav\n\n     Peak level 82.9 %\n     Track quality 100.0 %\n     Copy CRC 2E7F3FBF\n     Cannot be verified as accurate (confidence 3)  [2094B3F1], AccurateRip returned [5D4F881F]\n     Copy OK\n\nTrack  7\n\n     Filename E:MusicSeatrainSeatrainSeatrain - Seatrain - 07. 13 Questions.wav\n\n     Peak level 86.1 %\n     Track quality 99.9 %\n     Copy CRC 2484CD1C\n     Cannot be verified as accurate (confidence 2)  [0229961D], AccurateRip returned [1DF7BEAF]\n     Copy OK\n\nTrack  8\n\n     Filename E:MusicSeatrainSeatrainSeatrain - Seatrain - 08. Oh My Love.wav\n\n     Peak level 85.7 %\n     Track quality 100.0 %\n     Copy CRC 13478527\n     Cannot be verified as accurate (confidence 2)  [B412BEEB], AccurateRip returned [15346D46]\n     Copy OK\n\nTrack  9\n\n     Filename E:MusicSeatrainSeatrainSeatrain - Seatrain - 09. Sally Goodin'.wav\n\n     Peak level 60.4 %\n     Track quality 100.0 %\n     Copy CRC 522C9D29\n     Cannot be verified as accurate (confidence 2)  [7CA32171], AccurateRip returned [D1061C70]\n     Copy OK\n\nTrack 10\n\n     Filename E:MusicSeatrainSeatrainSeatrain - Seatrain - 10. Creepin' Midnight.wav\n\n     Peak level 75.5 %\n     Track quality 100.0 %\n     Copy CRC 9EBFE560\n     Cannot be verified as accurate (confidence 2)  [97647B77], AccurateRip returned [4EB84BD3]\n     Copy OK\n\nTrack 11\n\n     Filename E:MusicSeatrainSeatrainSeatrain - Seatrain - 11. O.B.S..wav\n\n     Peak level 86.1 %\n     Track quality 100.0 %\n     Copy CRC B02F00BE\n     Cannot be verified as accurate (confidence 2)  [97DF1CC0], AccurateRip returned [968CEC8E]\n     Copy OK\n\n\nNo tracks could be verified as accurate\nYou may have a different pressing from the one(s) in the database\n\nNo errors occurred\n\nEnd of status report\n\n\n\nExact Audio Copy V0.99 prebeta 4 from 23. January 2008\n\nEAC extraction logfile from 5. July 2009, 19:50\n\nSeatrain / Marblehead Messenger\n\nUsed drive  : ATAPI   DVD D  DH16D3P   Adapter: 0  ID: 1\n\nRead mode               : Secure\nUtilize accurate stream : Yes\nDefeat audio cache      : No\nMake use of C2 pointers : No\n\nRead offset correction                      : 6\nOverread into Lead-In and Lead-Out          : No\nFill up missing offset samples with silence : Yes\nDelete leading and trailing silent blocks   : No\nNull samples used in CRC calculations       : No\nUsed interface                              : Installed external ASPI interface\nGap handling                                : Not detected, thus appended to previous track\n\nUsed output format : Internal WAV Routines\nSample format      : 44.100 Hz; 16 Bit; Stereo\n\n\nTOC of the extracted CD\n\n     Track |   Start  |  Length  | Start sector | End sector \n    ---------------------------------------------------------\n        1  |  0:00.00 |  3:00.70 |         0    |    13569   \n        2  |  3:00.70 |  4:03.32 |     13570    |    31826   \n        3  |  7:04.27 |  5:25.33 |     31827    |    56234   \n        4  | 12:29.60 |  2:26.45 |     56235    |    67229   \n        5  | 14:56.30 |  4:59.55 |     67230    |    89709   \n        6  | 19:56.10 |  2:39.50 |     89710    |   101684   \n        7  | 22:35.60 |  4:23.62 |    101685    |   121471   \n        8  | 26:59.47 |  3:16.15 |    121472    |   136186   \n        9  | 30:15.62 |  4:37.63 |    136187    |   157024   \n       10  | 34:53.50 |  5:31.27 |    157025    |   181876   \n\n\nTrack  1\n\n     Filename E:MusicSeatrainMarblehead MessengerSeatrain - Marblehead Messenger - 01. Gramercy.wav\n\n     Peak level 86.1 %\n     Track quality 100.0 %\n     Copy CRC 5A11A156\n     Cannot be verified as accurate (confidence 2)  [CC07EA1A], AccurateRip returned [3137A4E0]\n     Copy OK\n\nTrack  2\n\n     Filename E:MusicSeatrainMarblehead MessengerSeatrain - Marblehead Messenger - 02. State of Georgia's Mind.wav\n\n     Peak level 86.1 %\n     Track quality 99.9 %\n     Copy CRC 1CD4D580\n     Cannot be verified as accurate (confidence 3)  [8794B861], AccurateRip returned [CD3CD65F]\n     Copy OK\n\nTrack  3\n\n     Filename E:MusicSeatrainMarblehead MessengerSeatrain - Marblehead Messenger - 03. Protestant Preacher.wav\n\n     Peak level 85.9 %\n     Track quality 99.9 %\n     Copy CRC 0BA91191\n     Cannot be verified as accurate (confidence 2)  [711DA62F], AccurateRip returned [4EF24699]\n     Copy OK\n\nTrack  4\n\n     Filename E:MusicSeatrainMarblehead MessengerSeatrain - Marblehead Messenger - 04. Lonely's Not the Only Way to Go.wav\n\n     Peak level 85.7 %\n     Track quality 100.0 %\n     Copy CRC 422386BC\n     Cannot be verified as accurate (confidence 2)  [60476F63], AccurateRip returned [8FC87661]\n     Copy OK\n\nTrack  5\n\n     Filename E:MusicSeatrainMarblehead MessengerSeatrain - Marblehead Messenger - 05. How Sweet Thy Song.wav\n\n     Peak level 86.1 %\n     Track quality 100.0 %\n     Copy CRC 3E848B37\n     Cannot be verified as accurate (confidence 3)  [90E77841], AccurateRip returned [0CF0D5BF]\n     Copy OK\n\nTrack  6\n\n     Filename E:MusicSeatrainMarblehead MessengerSeatrain - Marblehead Messenger - 06. Marblehead Messenger.wav\n\n     Peak level 85.7 %\n     Track quality 100.0 %\n     Copy CRC EE3AE658\n     Cannot be verified as accurate (confidence 3)  [5C131EB9], AccurateRip returned [9854DB17]\n     Copy OK\n\nTrack  7\n\n     Filename E:MusicSeatrainMarblehead MessengerSeatrain - Marblehead Messenger - 07. London Song.wav\n\n     Peak level 85.5 %\n     Track quality 100.0 %\n     Copy CRC 1310D34F\n     Cannot be verified as accurate (confidence 2)  [0F58A7AC], AccurateRip returned [303928E8]\n     Copy OK\n\nTrack  8\n\n     Filename E:MusicSeatrainMarblehead MessengerSeatrain - Marblehead Messenger - 08. Mississippi Moon.wav\n\n     Peak level 84.7 %\n     Track quality 100.0 %\n     Copy CRC D80EA56B\n     Cannot be verified as accurate (confidence 2)  [EFA9CB7F], AccurateRip returned [B5441FD3]\n     Copy OK\n\nTrack  9\n\n     Filename E:MusicSeatrainMarblehead MessengerSeatrain - Marblehead Messenger - 09. Losing All the Years.wav\n\n     Peak level 86.1 %\n     Track quality 100.0 %\n     Copy CRC E85053DB\n     Cannot be verified as accurate (confidence 2)  [0080C1A0], AccurateRip returned [91263A36]\n     Copy OK\n\nTrack 10\n\n     Filename E:MusicSeatrainMarblehead MessengerSeatrain - Marblehead Messenger - 10. Despair Tire.wav\n\n     Peak level 85.2 %\n     Track quality 100.0 %\n     Copy CRC B1875E7C\n     Cannot be verified as accurate (confidence 2)  [D894BE65], AccurateRip returned [7394EBBF]\n     Copy OK\n\n\nNo tracks could be verified as accurate\nYou may have a different pressing from the one(s) in the database\n\nNo errors occurred\n\nEnd of status report\n\n\n","torrent":{"xt":"urn:btih:4d5e2e4588086346d67f32f93b979f881e861edc","amp;dn":"Seatrain+-+Seatrain+%26+Marblehead+Messenger","amp;tr":["udp%3A%2F%2Ftracker.openbittorrent.com%3A80","udp%3A%2F%2Fopen.demonii.com%3A1337","udp%3A%2F%2Ftracker.coppersurfer.tk%3A6969","udp%3A%2F%2Fexodus.desync.com%3A6969"],"infoHash":"4d5e2e4588086346d67f32f93b979f881e861edc","infoHashBuffer":{"type":"Buffer","data":[77,94,46,69,136,8,99,70,214,127,50,249,59,151,159,136,30,134,30,220]},"announce":[],"urlList":[]}}